<svg width="243" height="46" viewBox="0 0 243 46" fill="none" xmlns="http://www.w3.org/2000/svg">
<path d="M56.7 33.01V13.81C56.7 13.15 57.03 12.82 57.69 12.82H63.39C65.19 12.82 66.51 13.01 67.35 13.39C68.39 13.85 69.2 14.56 69.78 15.52C70.38 16.48 70.68 17.62 70.68 18.94C70.68 20.3 70.34 21.52 69.66 22.6C68.98 23.66 68.06 24.38 66.9 24.76V24.82C67.08 25.02 67.29 25.34 67.53 25.78L71.34 32.83C71.54 33.17 71.57 33.45 71.43 33.67C71.31 33.89 71.06 34 70.68 34H69.48C68.92 34 68.53 33.77 68.31 33.31L64.17 25.57H59.64V33.01C59.64 33.67 59.31 34 58.65 34H57.69C57.03 34 56.7 33.67 56.7 33.01ZM59.64 22.99H63.9C65.06 22.99 65.98 22.63 66.66 21.91C67.34 21.19 67.68 20.24 67.68 19.06C67.68 17.42 67.02 16.32 65.7 15.76C65.16 15.52 64.32 15.4 63.18 15.4H59.64V22.99ZM73.392 26.41C73.392 24.03 74.102 22.11 75.522 20.65C76.962 19.19 78.782 18.46 80.982 18.46C83.042 18.46 84.642 19.13 85.782 20.47C86.942 21.79 87.522 23.53 87.522 25.69C87.522 25.97 87.422 26.21 87.222 26.41C87.042 26.61 86.802 26.71 86.502 26.71H76.362C76.442 28.31 76.982 29.57 77.982 30.49C78.982 31.39 80.192 31.84 81.612 31.84C82.952 31.84 84.162 31.44 85.242 30.64C85.842 30.32 86.292 30.43 86.592 30.97L86.862 31.42C87.202 31.98 87.102 32.42 86.562 32.74C85.022 33.82 83.312 34.36 81.432 34.36C79.072 34.36 77.142 33.61 75.642 32.11C74.142 30.59 73.392 28.69 73.392 26.41ZM76.482 24.79H84.612C84.572 23.49 84.202 22.49 83.502 21.79C82.822 21.09 81.962 20.74 80.922 20.74C79.802 20.74 78.832 21.1 78.012 21.82C77.192 22.54 76.682 23.53 76.482 24.79ZM90.6996 33.01V19.81C90.6996 19.15 91.0296 18.82 91.6896 18.82H92.5296C93.1896 18.82 93.5196 19.15 93.5196 19.81V21.16L93.4296 22.03H93.4896C93.8896 21.09 94.5796 20.26 95.5596 19.54C96.5596 18.82 97.6296 18.46 98.7696 18.46C101.27 18.46 102.79 19.61 103.33 21.91H103.39C103.83 20.97 104.54 20.16 105.52 19.48C106.5 18.8 107.58 18.46 108.76 18.46C110.48 18.46 111.74 18.94 112.54 19.9C113.36 20.86 113.77 22.32 113.77 24.28V33.01C113.77 33.67 113.44 34 112.78 34H111.85C111.19 34 110.86 33.67 110.86 33.01V24.91C110.86 23.69 110.67 22.75 110.29 22.09C109.93 21.43 109.23 21.1 108.19 21.1C106.85 21.1 105.76 21.69 104.92 22.87C104.1 24.03 103.69 25.38 103.69 26.92V33.01C103.69 33.67 103.37 34 102.73 34H101.77C101.13 34 100.81 33.67 100.81 33.01V24.91C100.81 23.71 100.63 22.78 100.27 22.12C99.9296 21.44 99.2296 21.1 98.1696 21.1C96.8096 21.1 95.7096 21.69 94.8696 22.87C94.0296 24.05 93.6096 25.4 93.6096 26.92V33.01C93.6096 33.67 93.2796 34 92.6196 34H91.6896C91.0296 34 90.6996 33.67 90.6996 33.01ZM117.02 23.26C117.02 20.2 118.05 17.64 120.11 15.58C122.17 13.5 124.77 12.46 127.91 12.46C131.03 12.46 133.62 13.5 135.68 15.58C137.74 17.64 138.77 20.2 138.77 23.26C138.77 26.4 137.74 29.04 135.68 31.18C133.62 33.3 131.03 34.36 127.91 34.36C124.79 34.36 122.19 33.3 120.11 31.18C118.05 29.04 117.02 26.4 117.02 23.26ZM120.08 23.26C120.08 25.64 120.82 27.63 122.3 29.23C123.8 30.83 125.67 31.63 127.91 31.63C130.15 31.63 132.01 30.83 133.49 29.23C134.97 27.63 135.71 25.64 135.71 23.26C135.71 20.96 134.97 19.04 133.49 17.5C132.01 15.96 130.15 15.19 127.91 15.19C125.67 15.19 123.8 15.96 122.3 17.5C120.82 19.04 120.08 20.96 120.08 23.26ZM142.116 33.01V19.81C142.116 19.15 142.446 18.82 143.106 18.82H143.946C144.606 18.82 144.936 19.15 144.936 19.81V21.16L144.846 22.03H144.906C145.306 21.15 145.996 20.34 146.976 19.6C147.956 18.84 149.186 18.46 150.666 18.46C154.126 18.46 155.856 20.4 155.856 24.28V33.01C155.856 33.67 155.526 34 154.866 34H153.936C153.276 34 152.946 33.67 152.946 33.01V24.94C152.946 23.72 152.746 22.78 152.346 22.12C151.966 21.46 151.216 21.13 150.096 21.13C148.636 21.13 147.426 21.67 146.466 22.75C145.506 23.83 145.026 25.16 145.026 26.74V33.01C145.026 33.67 144.696 34 144.036 34H143.106C142.446 34 142.116 33.67 142.116 33.01ZM159.84 29.86V13.81C159.84 13.15 160.17 12.82 160.83 12.82H161.76C162.42 12.82 162.75 13.15 162.75 13.81V29.5C162.75 30.76 163.21 31.43 164.13 31.51C164.65 31.57 164.91 31.86 164.91 32.38V33.1C164.91 33.78 164.57 34.12 163.89 34.12C161.19 34.12 159.84 32.7 159.84 29.86ZM168.652 15.79C167.992 15.79 167.662 15.46 167.662 14.8V13.81C167.662 13.15 167.992 12.82 168.652 12.82H169.672C170.332 12.82 170.662 13.15 170.662 13.81V14.8C170.662 15.46 170.332 15.79 169.672 15.79H168.652ZM167.692 33.01V19.81C167.692 19.15 168.022 18.82 168.682 18.82H169.612C170.272 18.82 170.602 19.15 170.602 19.81V33.01C170.602 33.67 170.272 34 169.612 34H168.682C168.022 34 167.692 33.67 167.692 33.01ZM174.811 33.01V19.81C174.811 19.15 175.141 18.82 175.801 18.82H176.641C177.301 18.82 177.631 19.15 177.631 19.81V21.16L177.541 22.03H177.601C178.001 21.15 178.691 20.34 179.671 19.6C180.651 18.84 181.881 18.46 183.361 18.46C186.821 18.46 188.551 20.4 188.551 24.28V33.01C188.551 33.67 188.221 34 187.561 34H186.631C185.971 34 185.641 33.67 185.641 33.01V24.94C185.641 23.72 185.441 22.78 185.041 22.12C184.661 21.46 183.911 21.13 182.791 21.13C181.331 21.13 180.121 21.67 179.161 22.75C178.201 23.83 177.721 25.16 177.721 26.74V33.01C177.721 33.67 177.391 34 176.731 34H175.801C175.141 34 174.811 33.67 174.811 33.01ZM191.576 26.41C191.576 24.03 192.286 22.11 193.706 20.65C195.146 19.19 196.966 18.46 199.166 18.46C201.226 18.46 202.826 19.13 203.966 20.47C205.126 21.79 205.706 23.53 205.706 25.69C205.706 25.97 205.606 26.21 205.406 26.41C205.226 26.61 204.986 26.71 204.686 26.71H194.546C194.626 28.31 195.166 29.57 196.166 30.49C197.166 31.39 198.376 31.84 199.796 31.84C201.136 31.84 202.346 31.44 203.426 30.64C204.026 30.32 204.476 30.43 204.776 30.97L205.046 31.42C205.386 31.98 205.286 32.42 204.746 32.74C203.206 33.82 201.496 34.36 199.616 34.36C197.256 34.36 195.326 33.61 193.826 32.11C192.326 30.59 191.576 28.69 191.576 26.41ZM194.666 24.79H202.796C202.756 23.49 202.386 22.49 201.686 21.79C201.006 21.09 200.146 20.74 199.106 20.74C197.986 20.74 197.016 21.1 196.196 21.82C195.376 22.54 194.866 23.53 194.666 24.79Z" fill="#231F20"/>
<path d="M41.334 31.7237C41.2391 33.7082 40.1955 35.5022 38.5352 36.5976L23.4975 45.3451C21.7107 46.2183 19.6551 46.2183 17.8525 45.3451L2.84642 36.5976C1.20192 35.5339 0.142482 33.6923 0.0476074 31.7237V14.2763C0.142482 12.3077 1.18611 10.5137 2.84642 9.40242L17.8683 0.654875C19.6551 -0.218292 21.7107 -0.218292 23.5133 0.654875L38.551 9.40242C40.1955 10.4661 41.2549 12.3077 41.3498 14.2763V31.7237H41.334Z" fill="#2190DC"/>
<path d="M8.47549 34.0257H0.553437C0.237187 33.3431 0.0474375 32.5969 0 31.819V26.7546H8.47549V34.0257ZM31.7198 22.7539C31.7198 28.9614 26.7231 33.9781 20.5404 33.9781H16.698V44.6942L9.40843 40.503V22.7539C9.40843 16.5942 14.4052 11.5298 20.5404 11.5298C26.7231 11.6092 31.7198 16.5783 31.7198 22.7539ZM24.5252 22.9286C24.5252 20.7695 22.7384 18.9755 20.5879 18.9755C18.4374 18.9755 16.6505 20.7695 16.6505 22.9286C16.6505 25.0877 18.4374 26.8816 20.5879 26.8816C22.7384 26.8816 24.5252 25.1353 24.5252 22.9286Z" fill="white"/>
<path d="M242.944 25C233.629 21.77 224.315 28.23 215 25C215 22.3108 215 19.6216 215 16.9324C224.315 20.1625 233.629 13.7024 242.944 16.9324C242.944 19.6216 242.944 22.3108 242.944 25Z" fill="url(#paint0_linear_2315_225)"/>
<path d="M242.944 33.0674C233.629 29.8373 224.315 36.2974 215 33.0674C215 30.3782 215 27.689 215 24.9998C224.315 28.2298 233.629 21.7698 242.944 24.9998C242.944 27.689 242.944 30.3782 242.944 33.0674Z" fill="url(#paint1_linear_2315_225)"/>
<defs>
<linearGradient id="paint0_linear_2315_225" x1="215" y1="20.9645" x2="242.942" y2="20.9645" gradientUnits="userSpaceOnUse">
<stop stop-color="#2190DC"/>
<stop offset="0.1093" stop-color="#2190DC"/>
<stop offset="0.2724" stop-color="#2D95DD"/>
<stop offset="0.4681" stop-color="#51AFF0"/>
<stop offset="0.67338" stop-color="#3895D5"/>
<stop offset="0.8162" stop-color="#3B9DE0"/>
<stop offset="0.9213" stop-color="#2190DC"/>
<stop offset="1" stop-color="#2190DC"/>
</linearGradient>
<linearGradient id="paint1_linear_2315_225" x1="215" y1="29.0288" x2="242.942" y2="29.0288" gradientUnits="userSpaceOnUse">
<stop stop-color="#EBCA47"/>
<stop offset="1" stop-color="#FAD649"/>
</linearGradient>
</defs>
</svg>
